<?xml version="1.0" encoding="UTF-8"?>
<svg width="308px" height="308px" viewBox="0 0 308 308" version="1.1" xmlns="http://www.w3.org/2000/svg" xmlns:xlink="http://www.w3.org/1999/xlink">
    <title>5E8725D7-C97A-4E4B-B0FA-5AB60A54C28D</title>
    <g id="Quotes" stroke="none" stroke-width="1" fill="none" fill-rule="evenodd">
        <g id="Sorting-Icons" transform="translate(-69.000000, -512.000000)" fill="#000000" fill-rule="nonzero">
            <g id="search-regular" transform="translate(69.000000, 512.000000)">
                <path d="M305.1,281.34 L232.26,208.5 C230.88,207.12 229.08,206.4 227.16,206.4 L219.24,206.4 C238.14,184.5 249.6,156 249.6,124.8 C249.6,55.86 193.74,0 124.8,0 C55.86,0 0,55.86 0,124.8 C0,193.74 55.86,249.6 124.8,249.6 C156,249.6 184.5,238.14 206.4,219.24 L206.4,227.16 C206.4,229.08 207.18,230.88 208.5,232.26 L281.34,305.1 C284.16,307.92 288.72,307.92 291.54,305.1 L305.1,291.54 C307.92,288.72 307.92,284.16 305.1,281.34 Z M124.8,220.8 C71.76,220.8 28.8,177.84 28.8,124.8 C28.8,71.76 71.76,28.8 124.8,28.8 C177.84,28.8 220.8,71.76 220.8,124.8 C220.8,177.84 177.84,220.8 124.8,220.8 Z" id="Shape"></path>
            </g>
        </g>
    </g>
</svg>