<?xml version="1.0" encoding="UTF-8"?>
<svg width="20px" height="35px" viewBox="0 0 193 269" version="1.1" xmlns="http://www.w3.org/2000/svg" xmlns:xlink="http://www.w3.org/1999/xlink">
    <title>06D038CB-AB0E-46FB-9979-0087307E5381</title>
    <g id="Quotes" stroke="none" stroke-width="1" fill="none" fill-rule="evenodd">
        <g id="Sorting-Icons" transform="translate(-362.000000, -78.000000)" fill="#000000" fill-rule="nonzero">
            <g id="sort-up" transform="translate(362.000000, 78.000000)">
                <path d="M173.4,153.6 L19.8,153.6 C2.76,153.6 -5.88,174.3 6.24,186.36 L83.04,263.16 C90.54,270.66 102.72,270.66 110.22,263.16 L187.02,186.36 C199.02,174.3 190.44,153.6 173.4,153.6 Z M96.6,249.6 L19.8,172.8 L173.4,172.8 L96.6,249.6 Z M19.8,115.2 L173.4,115.2 C190.44,115.2 199.08,94.5 186.96,82.44 L110.16,5.64 C102.66,-1.86 90.48,-1.86 82.98,5.64 L6.18,82.44 C-5.82,94.5 2.76,115.2 19.8,115.2 Z" id="Shape"></path>
            </g>
        </g>
    </g>
</svg>